<?xml version="1.0" encoding="utf-8"?>
<!-- Generator: Adobe Illustrator 21.0.0, SVG Export Plug-In . SVG Version: 6.00 Build 0)  -->
<svg version="1.1" id="Layer_1" xmlns="http://www.w3.org/2000/svg" xmlns:xlink="http://www.w3.org/1999/xlink" x="0px" y="0px"
	 width="211.9px" height="47.8px" viewBox="0 0 211.9 47.8" style="enable-background:new 0 0 211.9 47.8;" xml:space="preserve">
<style type="text/css">
	.st0{fill:#222426;}
	.st1{fill:#BCBBBB;}
	.st2{fill:#1ABC9C;}
</style>
<path class="st0" d="M155.8,27.9l-2.3-0.2c-1.8-0.1-2.5-0.9-2.5-2.1c0-1.4,1.1-2.3,3.2-2.3c1.5,0,2.8,0.3,3.8,1.1l1.3-1.3
	c-1.3-1.1-3.1-1.5-5.1-1.5c-3,0-5.2,1.6-5.2,4.2c0,2.3,1.5,3.6,4.3,3.8l2.3,0.2c1.6,0.1,2.3,0.8,2.3,2.1c0,1.7-1.4,2.5-3.8,2.5
	c-1.8,0-3.3-0.5-4.4-1.6l-1.4,1.4c1.6,1.5,3.4,2.1,5.8,2.1c3.4,0,5.8-1.6,5.8-4.3C160,29,158.3,28.1,155.8,27.9z M173.5,21.5
	c-2.3,0-3.7,0.4-5,2.1l1.3,1.3c0.8-1.2,1.8-1.6,3.6-1.6c2.6,0,3.6,1.1,3.6,3.1v1.4h-4.3c-3.2,0-4.9,1.6-4.9,4.1
	c0,1.1,0.4,2.2,1.1,2.9c0.9,0.9,2.1,1.3,4,1.3c1.9,0,2.9-0.4,4.1-1.5v1.4h2.1v-9.7C179.2,23.2,177.3,21.5,173.5,21.5z M177.1,30.8
	c0,1.2-0.2,2-0.7,2.4c-0.9,0.9-2,1-3.2,1c-2.2,0-3.2-0.8-3.2-2.4c0-1.6,1.1-2.5,3.2-2.5h4V30.8z M187.3,23.3c1.3,0,2.2,0.4,3.2,1.6
	l1.4-1.3c-1.4-1.6-2.7-2.1-4.6-2.1c-3.6,0-6.3,2.4-6.3,7.3s2.7,7.3,6.3,7.3c2,0,3.2-0.5,4.7-2.1l-1.4-1.3c-1.1,1.2-1.9,1.6-3.2,1.6
	c-1.4,0-2.5-0.5-3.3-1.6c-0.7-0.9-0.9-2-0.9-3.8c0-1.8,0.2-2.9,0.9-3.8C184.8,23.9,185.9,23.3,187.3,23.3z M205.1,21.7h-2.6
	l-6.4,6.3V15.4H194v20.5h2.1v-5.2l2.5-2.5l4.7,7.7h2.6l-5.9-9.1L205.1,21.7z M102.6,20.9c-2.2,0-3.6,0.9-4.5,1.8
	c-1.3,1.4-1.7,3.1-1.7,5.7s0.3,4.3,1.7,5.7c0.9,1,2.4,1.8,4.5,1.8c2.2,0,3.7-0.9,4.6-1.8c1.3-1.4,1.7-3.1,1.7-5.7s-0.3-4.3-1.7-5.7
	C106.2,21.8,104.7,20.9,102.6,20.9z M104.3,32c-0.4,0.4-1,0.7-1.7,0.7c-0.7,0-1.3-0.2-1.7-0.7c-0.8-0.8-0.9-2.1-0.9-3.6
	s0.1-2.8,0.9-3.6c0.4-0.4,1-0.7,1.7-0.7c0.7,0,1.3,0.2,1.7,0.7c0.8,0.8,0.9,2.1,0.9,3.6S105,31.3,104.3,32z M118.6,21.1l-3,9.1
	l-3-9.1h-3.9l5.4,14.8h2.9l5.4-14.8H118.6z M128.8,20.9c-3.8,0-6.4,2.7-6.4,7.5c0,6,3.3,7.5,6.8,7.5c2.7,0,4.1-0.8,5.6-2.3l-2.2-2.2
	c-1,1-1.7,1.4-3.3,1.4c-2.1,0-3.2-1.4-3.2-3.3h9.2v-1.6C135.2,23.9,132.8,20.9,128.8,20.9z M126,27.1c0-0.7,0.1-1.1,0.3-1.6
	c0.4-0.9,1.2-1.5,2.5-1.5c1.2,0,2.1,0.7,2.5,1.5c0.2,0.5,0.3,1,0.3,1.6H126z M140.6,22.5V21H137v14.8h3.7V27c0-1.9,1.2-2.7,2.4-2.7
	c0.9,0,1.4,0.3,2,0.9l2.8-2.8c-1-1-2.1-1.4-3.5-1.4C142.7,20.9,141.3,21.7,140.6,22.5z M45.8,19.6v16.3h3.7V24.2h2.7v-2.8h-2.7v-1.6
	c0-0.9,0.4-1.3,1.3-1.3h1.4v-3.1h-2.1C47.1,15.3,45.8,17.5,45.8,19.6z M67.3,20.9c-2.2,0-3.6,0.9-4.5,1.8c-1.3,1.4-1.7,3.1-1.7,5.7
	s0.3,4.3,1.7,5.7c0.9,1,2.4,1.8,4.5,1.8c2.2,0,3.7-0.9,4.6-1.8c1.3-1.4,1.7-3.1,1.7-5.7s-0.3-4.3-1.7-5.7
	C71,21.8,69.5,20.9,67.3,20.9z M69.1,32c-0.4,0.4-1,0.7-1.7,0.7c-0.7,0-1.3-0.2-1.7-0.7c-0.8-0.8-0.9-2.1-0.9-3.6s0.1-2.8,0.9-3.6
	c0.4-0.4,1-0.7,1.7-0.7c0.7,0,1.3,0.2,1.7,0.7c0.8,0.8,0.9,2.1,0.9,3.6S69.8,31.3,69.1,32z M91,21.1l-2.4,9.1l-3-9.1h-2.7l-3,9.1
	l-2.4-9.1h-3.9l4.5,14.8h3l3.1-9.3l3.1,9.3h3l4.5-14.8H91z M57.6,31.4V15.3h-3.7v16.3c0,2.1,1.3,4.2,4.3,4.2h2.1v-3.1h-1.4
	C58,32.7,57.6,32.3,57.6,31.4z M165.7,23.9l1.9-1.9h-3.9v-4.7h-2.1V32c0,2.1,1.2,3.8,3.6,3.8h1.5v-1.8h-1.1c-1.3,0-1.9-0.8-1.9-2.1
	v-8.1H165.7z"/>
<polygon class="st1" points="32.9,39.3 32.9,28.8 36.5,28.8 36.5,42.8 5,42.8 5,28.8 8.5,28.8 8.5,39.3 "/>
<path class="st2" d="M35.9,13.9l-17.2-3.6L18,13.8l17.2,3.6L35.9,13.9z M33.6,22.1l-15.9-7.4l-1.5,3.2l15.9,7.5L33.6,22.1z
	 M29.2,29.9L15.7,18.8l-2.2,2.7L27,32.6L29.2,29.9z M20.5,38.2l2.8-2.1l-10.5-14l-2.8,2.1L20.5,38.2z M36.2,6H18.8v3.5h17.5V6z"/>
</svg>
